<svg xmlns="http://www.w3.org/2000/svg" width="320" height="180" viewBox="0 0 320 180">
  <rect width="320" height="180" fill="#1e293b"/>
  <rect x="20" y="20" width="280" height="140" rx="12" fill="#334155"/>
  <text x="40" y="52" fill="#94a3b8" font-family="Segoe UI, sans-serif" font-size="14">Windows Desktop</text>
  <!-- pixel cat -->
  <g transform="translate(210, 78) scale(4)">
    <rect x="7" y="12" width="8" height="6" fill="#f4a442"/>
    <rect x="7" y="6" width="8" height="6" fill="#f4a442"/>
    <rect x="8" y="5" width="2" height="2" fill="#d97706"/>
    <rect x="12" y="5" width="2" height="2" fill="#d97706"/>
    <rect x="9" y="8" width="1" height="1" fill="#1f2937"/>
    <rect x="13" y="8" width="1" height="1" fill="#1f2937"/>
    <rect x="11" y="9" width="1" height="1" fill="#fb7185"/>
    <rect x="8" y="18" width="1" height="1" fill="#2b1d0e"/>
    <rect x="10" y="18" width="1" height="1" fill="#2b1d0e"/>
    <rect x="12" y="18" width="1" height="1" fill="#2b1d0e"/>
    <rect x="14" y="18" width="1" height="1" fill="#2b1d0e"/>
    <rect x="4" y="10" width="1" height="4" fill="#d97706"/>
    <rect x="3" y="9" width="1" height="1" fill="#d97706"/>
  </g>
  <text x="40" y="110" fill="#e2e8f0" font-family="Segoe UI, sans-serif" font-size="20" font-weight="600">Desktop Pet</text>
  <text x="40" y="136" fill="#94a3b8" font-family="Segoe UI, sans-serif" font-size="13">Ö¨ ˇ Ěűx ˇ ó.ÜU</text>
</svg>
